<svg width="835" height="50" viewBox="0 0 835 50" fill="none" xmlns="http://www.w3.org/2000/svg">
<path d="M19.9265 6.323C17.3097 6.323 14.7185 6.86368 12.301 7.91416C9.88336 8.96465 7.68668 10.5044 5.83634 12.4454C2.09939 16.3655 0 21.6823 0 27.2262C0 36.4654 5.7189 44.3042 13.6297 47.0843C14.626 47.2515 14.9449 46.6035 14.9449 46.0391V42.5065C9.42523 43.7607 8.24957 39.7054 8.24957 39.7054C7.33295 37.2807 6.03773 36.6327 6.03773 36.6327C4.22442 35.3367 6.17721 35.3785 6.17721 35.3785C8.16986 35.5248 9.22597 37.5315 9.22597 37.5315C10.9596 40.7088 13.8888 39.7682 15.0246 39.2665C15.2039 37.9078 15.722 36.988 16.2799 36.4654C11.8563 35.9429 7.21339 34.1452 7.21339 26.1811C7.21339 23.8608 7.9706 22.0004 9.26582 20.5163C9.06656 19.9937 8.36913 17.8198 9.46509 14.9978C9.46509 14.9978 11.1389 14.4334 14.9449 17.13C16.5191 16.6701 18.2327 16.4402 19.9265 16.4402C21.6202 16.4402 23.3339 16.6701 24.9081 17.13C28.7141 14.4334 30.3879 14.9978 30.3879 14.9978C31.4839 17.8198 30.7864 19.9937 30.5872 20.5163C31.8824 22.0004 32.6396 23.8608 32.6396 26.1811C32.6396 34.1661 27.9768 35.922 23.5332 36.4445C24.2505 37.0925 24.9081 38.3676 24.9081 40.3116V46.0391C24.9081 46.6035 25.2269 47.2724 26.2432 47.0843C34.154 44.2833 39.853 36.4654 39.853 27.2262C39.853 24.4812 39.3376 21.763 38.3362 19.2269C37.3348 16.6908 35.867 14.3865 34.0167 12.4454C32.1663 10.5044 29.9696 8.96465 27.552 7.91416C25.1344 6.86368 22.5433 6.323 19.9265 6.323Z" fill="white"/>
<path d="M169.375 6.323H186.113C192.49 6.323 197.671 11.7578 197.671 18.4469V36.0056C197.671 39.221 196.453 42.3048 194.286 44.5784C192.118 46.8521 189.179 48.1294 186.113 48.1294H169.375C162.999 48.1294 157.818 42.6946 157.818 36.0056V18.4469C157.818 15.2314 159.036 12.1477 161.203 9.874C163.37 7.60033 166.31 6.323 169.375 6.323ZM168.977 10.5036C167.074 10.5036 165.25 11.2965 163.904 12.7077C162.559 14.119 161.803 16.033 161.803 18.0288V36.4236C161.803 40.5834 165.011 43.9488 168.977 43.9488H186.512C188.415 43.9488 190.239 43.156 191.584 41.7447C192.93 40.3335 193.686 38.4194 193.686 36.4236V18.0288C193.686 13.8691 190.477 10.5036 186.512 10.5036H168.977ZM188.206 13.6391C188.866 13.6391 189.5 13.9144 189.967 14.4044C190.434 14.8944 190.697 15.559 190.697 16.252C190.697 16.945 190.434 17.6096 189.967 18.0996C189.5 18.5896 188.866 18.8649 188.206 18.8649C187.545 18.8649 186.912 18.5896 186.445 18.0996C185.977 17.6096 185.715 16.945 185.715 16.252C185.715 15.559 185.977 14.8944 186.445 14.4044C186.912 13.9144 187.545 13.6391 188.206 13.6391ZM177.744 16.7746C180.387 16.7746 182.921 17.8758 184.789 19.8358C186.658 21.7959 187.708 24.4543 187.708 27.2262C187.708 29.9982 186.658 32.6566 184.789 34.6166C182.921 36.5767 180.387 37.6778 177.744 37.6778C175.102 37.6778 172.568 36.5767 170.699 34.6166C168.831 32.6566 167.781 29.9982 167.781 27.2262C167.781 24.4543 168.831 21.7959 170.699 19.8358C172.568 17.8758 175.102 16.7746 177.744 16.7746ZM177.744 20.9553C176.159 20.9553 174.638 21.6159 173.517 22.792C172.396 23.968 171.766 25.5631 171.766 27.2262C171.766 28.8894 172.396 30.4844 173.517 31.6605C174.638 32.8365 176.159 33.4972 177.744 33.4972C179.33 33.4972 180.85 32.8365 181.971 31.6605C183.092 30.4844 183.722 28.8894 183.722 27.2262C183.722 25.5631 183.092 23.968 181.971 22.792C180.85 21.6159 179.33 20.9553 177.744 20.9553Z" fill="white"/>
<path d="M357.322 13.5139C355.788 14.2455 354.134 14.7263 352.42 14.9562C354.174 13.8483 355.529 12.0925 356.166 9.98125C354.512 11.0264 352.679 11.758 350.746 12.1761C349.172 10.3784 346.96 9.33325 344.449 9.33325C339.767 9.33325 335.941 13.3467 335.941 18.3007C335.941 19.0114 336.021 19.7013 336.16 20.3493C329.066 19.973 322.75 16.3985 318.545 10.9846C317.808 12.3015 317.389 13.8483 317.389 15.4788C317.389 18.5934 318.884 21.3526 321.195 22.9203C319.78 22.9203 318.465 22.5023 317.31 21.8752V21.9379C317.31 26.2858 320.259 29.9229 324.164 30.7382C322.91 31.0981 321.594 31.1482 320.318 30.8845C320.86 32.6664 321.92 34.2257 323.349 35.343C324.779 36.4603 326.507 37.0795 328.289 37.1136C325.267 39.6229 321.522 40.9793 317.668 40.9598C316.991 40.9598 316.313 40.918 315.636 40.8344C319.422 43.3846 323.925 44.8687 328.747 44.8687C344.449 44.8687 353.078 31.198 353.078 19.3459C353.078 18.9487 353.078 18.5725 353.058 18.1753C354.732 16.9211 356.166 15.3325 357.322 13.5139Z" fill="white"/>
<path d="M665.067 8.32983C666.124 8.32983 667.137 8.77029 667.885 9.55432C668.632 10.3383 669.052 11.4017 669.052 12.5105V41.775C669.052 42.8838 668.632 43.9471 667.885 44.7312C667.137 45.5152 666.124 45.9556 665.067 45.9556H637.17C636.113 45.9556 635.099 45.5152 634.352 44.7312C633.604 43.9471 633.184 42.8838 633.184 41.775V12.5105C633.184 11.4017 633.604 10.3383 634.352 9.55432C635.099 8.77029 636.113 8.32983 637.17 8.32983H665.067ZM664.07 40.7298V29.6511C664.07 27.8438 663.386 26.1105 662.168 24.8326C660.95 23.5546 659.297 22.8367 657.574 22.8367C655.881 22.8367 653.908 23.9236 652.951 25.5541V23.2338H647.392V40.7298H652.951V30.4245C652.951 28.815 654.187 27.4981 655.721 27.4981C656.461 27.4981 657.171 27.8064 657.694 28.3552C658.217 28.904 658.511 29.6484 658.511 30.4245V40.7298H664.07ZM640.916 19.952C641.804 19.952 642.655 19.582 643.283 18.9235C643.911 18.2649 644.264 17.3717 644.264 16.4403C644.264 14.4963 642.769 12.9076 640.916 12.9076C640.023 12.9076 639.166 13.2798 638.535 13.9423C637.903 14.6048 637.548 15.5034 637.548 16.4403C637.548 18.3843 639.063 19.952 640.916 19.952ZM643.686 40.7298V23.2338H638.166V40.7298H643.686Z" fill="white"/>
<path d="M515.22 27.2262C515.22 15.6876 506.292 6.323 495.293 6.323C484.294 6.323 475.367 15.6876 475.367 27.2262C475.367 37.3434 482.221 45.7674 491.308 47.7114V33.4972H487.322V27.2262H491.308V22.0004C491.308 17.9661 494.436 14.6843 498.282 14.6843H503.264V20.9553H499.278C498.182 20.9553 497.286 21.8959 497.286 23.0456V27.2262H503.264V33.4972H497.286V48.0249C507.349 46.9798 515.22 38.075 515.22 27.2262Z" fill="white"/>
<path d="M825.136 10.2291C823.31 8.29981 821.134 6.7701 818.735 5.72923C816.337 4.68837 813.765 4.15717 811.168 4.16663C800.288 4.16663 791.421 13.4375 791.421 24.8125C791.421 28.4583 792.337 32 794.051 35.125L791.261 45.8333L801.723 42.9583C804.612 44.6041 807.86 45.4791 811.168 45.4791C822.048 45.4791 830.915 36.2083 830.915 24.8333C830.915 19.3125 828.863 14.125 825.136 10.2291ZM811.168 41.9791C808.219 41.9791 805.329 41.1458 802.799 39.5833L802.201 39.2083L795.984 40.9166L797.638 34.5833L797.239 33.9375C795.601 31.202 794.731 28.04 794.729 24.8125C794.729 15.3541 802.101 7.64579 811.148 7.64579C815.532 7.64579 819.657 9.43746 822.745 12.6875C824.275 14.2791 825.487 16.1722 826.311 18.2571C827.135 20.342 827.556 22.5773 827.548 24.8333C827.587 34.2916 820.215 41.9791 811.168 41.9791ZM820.175 29.1458C819.677 28.8958 817.246 27.6458 816.807 27.4583C816.349 27.2916 816.03 27.2083 815.691 27.7083C815.352 28.2291 814.416 29.3958 814.137 29.7291C813.858 30.0833 813.559 30.125 813.061 29.8541C812.563 29.6041 810.969 29.0416 809.096 27.2916C807.621 25.9166 806.645 24.2291 806.346 23.7083C806.067 23.1875 806.306 22.9166 806.565 22.6458C806.784 22.4166 807.063 22.0416 807.302 21.75C807.541 21.4583 807.641 21.2291 807.8 20.8958C807.96 20.5416 807.88 20.25 807.76 20C807.641 19.75 806.645 17.2083 806.246 16.1666C805.848 15.1666 805.429 15.2916 805.13 15.2708H804.174C803.835 15.2708 803.317 15.3958 802.859 15.9166C802.42 16.4375 801.145 17.6875 801.145 20.2291C801.145 22.7708 802.918 25.2291 803.157 25.5625C803.397 25.9166 806.645 31.125 811.586 33.3541C812.762 33.8958 813.679 34.2083 814.396 34.4375C815.572 34.8333 816.648 34.7708 817.505 34.6458C818.461 34.5 820.434 33.3958 820.832 32.1875C821.251 30.9791 821.251 29.9583 821.111 29.7291C820.972 29.5 820.673 29.3958 820.175 29.1458Z" fill="white"/>
</svg>
